/* XPM */
static char * bottom_active_xpm[] = {
"32 4 3 1",
" 	c None",
".	c #000000",
"+	c #474747 s active_color_1",
"................................",
"++++++++++++++++++++++++++++++++",
"++++++++++++++++++++++++++++++++",
"++++++++++++++++++++++++++++++++"};
