/* XPM */
static char * bottom_right_active_xpm[] = {
"20 20 3 1",
" 	c None",
".	c #000000",
"+	c #474747 s active_color_1",
"                .+++",
"                .+++",
"                .+++",
"                .+++",
"                .+++",
"                .+++",
"                .+++",
"                .+++",
"                .+++",
"                .+++",
"                .+++",
"                .+++",
"                .+++",
"                .+++",
"                .+++",
"                .+++",
".................+++",
"++++++++++++++++++++",
"++++++++++++++++++++",
"++++++++++++++++++++"};
