/* XPM */
static char * bottom_left_active_xpm[] = {
"20 20 3 1",
" 	c None",
".	c #474747 s active_color_1",
"+	c #000000",
"...+                ",
"...+                ",
"...+                ",
"...+                ",
"...+                ",
"...+                ",
"...+                ",
"...+                ",
"...+                ",
"...+                ",
"...+                ",
"...+                ",
"...+                ",
"...+                ",
"...+                ",
"...+                ",
"...+++++++++++++++++",
"....................",
"....................",
"...................."};
