/* XPM */
static char * left_inactive_xpm[] = {
"4 32 3 1",
" 	c None",
".	c #3C3C3C s inactive_text_color",
"+	c #000000",
"...+",
"...+",
"...+",
"...+",
"...+",
"...+",
"...+",
"...+",
"...+",
"...+",
"...+",
"...+",
"...+",
"...+",
"...+",
"...+",
"...+",
"...+",
"...+",
"...+",
"...+",
"...+",
"...+",
"...+",
"...+",
"...+",
"...+",
"...+",
"...+",
"...+",
"...+",
"...+"};
