/* XPM */
static char * left_active_xpm[] = {
"4 32 3 1",
" 	c None",
".	c #474747 s active_color_1",
"+	c #000000",
"...+",
"...+",
"...+",
"...+",
"...+",
"...+",
"...+",
"...+",
"...+",
"...+",
"...+",
"...+",
"...+",
"...+",
"...+",
"...+",
"...+",
"...+",
"...+",
"...+",
"...+",
"...+",
"...+",
"...+",
"...+",
"...+",
"...+",
"...+",
"...+",
"...+",
"...+",
"...+"};
