/* XPM */
static char * right_active_xpm[] = {
"4 32 3 1",
" 	c None",
".	c #000000",
"+	c #474747 s active_color_1",
".+++",
".+++",
".+++",
".+++",
".+++",
".+++",
".+++",
".+++",
".+++",
".+++",
".+++",
".+++",
".+++",
".+++",
".+++",
".+++",
".+++",
".+++",
".+++",
".+++",
".+++",
".+++",
".+++",
".+++",
".+++",
".+++",
".+++",
".+++",
".+++",
".+++",
".+++",
".+++"};
