/* XPM */
static char * top_right_active_xpm[] = {
"4 18 3 1",
" 	c None",
".	c #474747 s active_color_1",
"+	c #000000",
"....",
"....",
"....",
"+...",
"+...",
"+...",
"+...",
"+...",
"+...",
"+...",
"+...",
"+...",
"+...",
"+...",
"+...",
"+...",
"+...",
"+..."};
